<?xml version="1.0" encoding="utf-8"?>
<!-- Generator: Adobe Illustrator 24.1.0, SVG Export Plug-In . SVG Version: 6.00 Build 0)  -->
<svg version="1.1" id="Layer_1" xmlns="http://www.w3.org/2000/svg" xmlns:xlink="http://www.w3.org/1999/xlink" x="0px" y="0px"
	 viewBox="0 0 100 100" style="enable-background:new 0 0 100 100;" xml:space="preserve">
<style type="text/css">
	.st0{fill:#010101;}
</style>
<path class="st0" d="M26.8,95.5c-2.4,0-4.6-0.9-6.4-2.6L5.9,78.4c-3.1-3.1-3.6-8.1-1-11.8l8.8-12.1c0.6-0.8,0.9-1.8,0.9-2.8
	c-0.5-9.6,3.1-19,10-25.9c6.8-6.8,16.3-10.4,25.9-10c1,0,1.9-0.3,2.8-0.8l12.1-8.8C69,3.6,74,4,77.2,7.2l14.5,14.5
	c3.1,3.1,3.6,8.1,1,11.8l-8.8,12.3c-0.6,0.8-0.9,1.8-0.8,2.6c0.5,9.6-3.1,19-10,25.9c-6.8,6.8-16.3,10.4-25.9,10
	c-0.9,0-1.9,0.3-2.6,0.8l-12.3,8.8C30.5,94.9,28.6,95.5,26.8,95.5z M48.5,20.5c-7.8,0-15.3,3.1-20.8,8.6c-5.9,5.9-9,14-8.6,22.3
	c0.1,2-0.5,4-1.8,5.8L8.5,69.3c-1.3,1.8-1,4.1,0.5,5.6l14.5,14.5c1.5,1.5,3.9,1.8,5.6,0.5l12.3-8.8c1.6-1.1,3.6-1.8,5.6-1.6
	c8.3,0.4,16.4-2.8,22.3-8.6c5.9-5.9,9-14,8.6-22.3c-0.1-2,0.5-4,1.6-5.6l8.8-12.3c1.3-1.8,1-4.1-0.5-5.6L73.4,10.6
	c-1.5-1.5-3.9-1.8-5.6-0.5l-12.1,8.8c-1.6,1.3-3.8,1.8-5.8,1.8C49.5,20.5,49,20.5,48.5,20.5z M64.9,64.7c0.9-1,0.8-2.5-0.1-3.4
	c-1-0.9-2.5-0.8-3.4,0.1c-3.3,3.6-7.9,5.6-12.8,5.6s-9.5-2.1-12.8-5.6c-5.8-6.4-5.8-16.5,0-23c3.3-3.6,7.9-5.6,12.8-5.6
	s9.5,2.1,12.8,5.6c0.9,1,2.4,1,3.4,0.1s1-2.4,0.1-3.4c-4.1-4.6-10.1-7.3-16.3-7.3s-12.1,2.6-16.3,7.3c-7.4,8.3-7.4,21.2,0,29.3
	c4.1,4.6,10.1,7.3,16.3,7.3C54.8,72,60.8,69.3,64.9,64.7z M67,57.1c-1.3-0.4-2-1.6-1.8-2.9l0,0c0.4-1.3,1.6-2,2.9-1.8l0,0
	c1.3,0.3,2,1.6,1.8,2.9l0,0c-0.3,1.1-1.3,1.8-2.3,1.8l0,0C67.4,57.2,67.2,57.1,67,57.1z M65.3,45.9L65.3,45.9
	C65,44.7,65.8,43.4,67,43l0,0c1.3-0.4,2.5,0.5,2.9,1.8l0,0c0.4,1.3-0.5,2.5-1.8,2.9l0,0c-0.3,0-0.4,0.1-0.5,0.1l0,0
	C66.5,47.7,65.5,46.9,65.3,45.9z"/>
</svg>
