<?xml version="1.0" encoding="utf-8"?>
<!-- Generator: Adobe Illustrator 24.1.0, SVG Export Plug-In . SVG Version: 6.00 Build 0)  -->
<svg version="1.1" id="Layer_1" xmlns="http://www.w3.org/2000/svg" xmlns:xlink="http://www.w3.org/1999/xlink" x="0px" y="0px"
	 viewBox="0 0 100 100" style="enable-background:new 0 0 100 100;" xml:space="preserve">
<style type="text/css">
	.st0{fill:#010101;}
</style>
<path class="st0" d="M99.3,49.9c0,27-22,49-49,49s-49-22-49-49c0-1.3,1.1-2.5,2.5-2.5s2.5,1.1,2.5,2.5c0,24.3,19.7,44,44,44
	s44-19.7,44-44c0-11.4-4.3-22.2-12.2-30.5c-0.9-1.1-0.9-2.5,0.1-3.6c1.1-0.9,2.6-0.9,3.6,0.1C94.4,25,99.3,37.1,99.3,49.9z
	 M22.3,49.9c0-1.3,1.1-2.5,2.5-2.5h17.9c0-0.1,0-0.1,0.1-0.3c0-0.1,0.1-0.4,0.3-0.5c0.1-0.3,0.3-0.5,0.4-0.9
	c0.1-0.1,0.3-0.4,0.4-0.5c0.3-0.3,0.4-0.5,0.7-0.8c0.1-0.1,0.1-0.1,0.1-0.3c1.4-1.4,3.6-2.4,5.7-2.4l0,0l0,0c0,0,0,0,0.1,0
	c0.3,0,0.5,0,0.7,0c0.1,0,0.3,0,0.5,0.1c0.1,0,0.3,0,0.3,0c0.1,0,0.4,0.1,0.5,0.1c0.1,0,0.1,0,0.3,0c0.1,0,0.4,0.1,0.5,0.1
	c0,0,0.1,0,0.1,0.1c0.1,0.1,0.4,0.1,0.5,0.3l15.6-15.6c0.9-0.9,2.5-0.9,3.6,0c0.9,0.9,0.9,2.5,0,3.6L57.5,46.1
	c0.5,1.1,0.9,2.4,0.9,3.6c0,4.3-3.6,8-8,8c-0.5,0-1.1,0-1.4-0.1c0,0,0,0-0.1,0c-0.4-0.1-0.9-0.3-1.3-0.4c-0.1,0-0.1,0-0.3-0.1
	c-0.4-0.1-0.8-0.4-1.1-0.5c-0.1-0.1-0.3-0.1-0.4-0.3c-0.3-0.3-0.7-0.4-0.9-0.7c-0.1,0-0.1-0.1-0.3-0.1c-0.1-0.1-0.1-0.1-0.1-0.3
	c-0.3-0.3-0.4-0.5-0.7-0.8c-0.1-0.1-0.3-0.4-0.4-0.5c-0.1-0.3-0.3-0.5-0.4-0.9c-0.1-0.1-0.1-0.4-0.3-0.5c0-0.1,0-0.1-0.1-0.3H24.7
	C23.4,52.4,22.3,51.2,22.3,49.9z M50.2,46.8c-1.7,0-3,1.3-3,3c0,1.6,1.3,3,2.9,3c0.8,0,1.6-0.3,2.1-0.9c0.5-0.5,0.9-1.3,0.9-2.1
	s-0.3-1.6-0.9-2.1c-0.4-0.4-0.9-0.7-1.6-0.8c-0.1,0-0.1,0-0.3,0C50.4,46.8,50.4,46.8,50.2,46.8z M47.5,5.9h0.1
	C48.9,5.8,50,4.6,50,3.3C49.8,2,48.6,1,47.3,1C46,1.1,45,2.3,45,3.6C45.1,4.9,46.1,5.9,47.5,5.9z M37.6,7.5c0.3,0,0.4,0,0.7-0.1
	c1.3-0.4,2.1-1.7,1.7-3c-0.4-1.3-1.7-2.1-3-1.7c-1.3,0.4-2.1,1.7-1.7,3C35.5,6.9,36.5,7.5,37.6,7.5z M66.3,8.8C66.5,9,66.9,9,67.2,9
	c1.1,0,2-0.7,2.4-1.6c0.5-1.3-0.1-2.8-1.4-3.3s-2.8,0.1-3.2,1.4C64.4,6.9,64.9,8.3,66.3,8.8z M74.7,13.2c0.4,0.3,0.9,0.4,1.4,0.4
	c0.8,0,1.6-0.4,2.1-1.1c0.8-1.2,0.4-2.6-0.7-3.4l0,0c-1.2-0.8-2.6-0.4-3.4,0.7C73.2,10.9,73.5,12.5,74.7,13.2z M57.1,6.3
	c0.1,0,0.3,0,0.4,0c1.2,0,2.2-0.9,2.5-2.1c0.3-1.3-0.7-2.6-2.1-2.9C56.5,1.1,55.2,2,55,3.4C54.8,4.9,55.7,6.1,57.1,6.3z M4.2,42.2
	c0.1,0,0.4,0,0.5,0c1.2,0,2.2-0.8,2.4-2c0.3-1.3-0.5-2.6-1.8-2.9s-2.6,0.5-2.9,1.8C2.1,40.7,2.9,42,4.2,42.2z M7,32.6
	c0.4,0.1,0.7,0.3,1.1,0.3c0.9,0,1.8-0.5,2.2-1.4c0.5-1.2,0-2.8-1.2-3.3s-2.8,0-3.3,1.2l0,0C5.1,30.5,5.6,32,7,32.6z M20,17
	c0.5,0,1.2-0.3,1.6-0.7c1.1-0.9,1.2-2.5,0.3-3.6c-0.9-1.1-2.5-1.2-3.6-0.3S17.1,15,18,16.1C18.7,16.6,19.3,17,20,17z M11.7,23.7
	c0.4,0.4,0.9,0.5,1.4,0.5c0.8,0,1.4-0.4,2-0.9c0.8-1.1,0.7-2.6-0.5-3.6c-1.1-0.8-2.6-0.7-3.4,0.5C10.4,21.3,10.5,22.9,11.7,23.7z
	 M28.3,11.3c0.4,0,0.8-0.1,1.2-0.3c1.2-0.7,1.7-2.1,1.1-3.4c-0.7-1.2-2.1-1.7-3.4-1.1C25.9,7.3,25.4,8.7,26,10
	C26.6,10.8,27.5,11.3,28.3,11.3z"/>
</svg>
